<svg width="300" height="260" viewBox="0 0 300 260" fill="none" xmlns="http://www.w3.org/2000/svg">
<g clip-path="url(#clip0)">
<path d="M40.2999 235.08H283.474" stroke="#E5E6E8" stroke-width="2" stroke-linecap="round"/>
<path d="M40.2999 188.85H283.474" stroke="#E5E6E8" stroke-width="2" stroke-linecap="round"/>
<path d="M40.2999 181.145H283.474" stroke="#E5E6E8" stroke-width="2" stroke-linecap="round"/>
<path d="M40.2999 173.44H283.474" stroke="#E5E6E8" stroke-width="2" stroke-linecap="round"/>
<path d="M40.2999 165.735H283.474" stroke="#E5E6E8" stroke-width="2" stroke-linecap="round"/>
<path d="M40.2999 150.325H283.474" stroke="#E5E6E8" stroke-width="2" stroke-linecap="round"/>
<path d="M40.2999 142.62H283.474" stroke="#E5E6E8" stroke-width="2" stroke-linecap="round"/>
<path d="M40.2999 134.915H283.474" stroke="#E5E6E8" stroke-width="2" stroke-linecap="round"/>
<path d="M40.2999 127.21H283.474" stroke="#E5E6E8" stroke-width="2" stroke-linecap="round"/>
<path d="M40.2999 111.8H283.474" stroke="#E5E6E8" stroke-width="2" stroke-linecap="round"/>
<path d="M40.2999 104.095H283.474" stroke="#E5E6E8" stroke-width="2" stroke-linecap="round"/>
<path d="M40.2999 96.3895H283.474" stroke="#E5E6E8" stroke-width="2" stroke-linecap="round"/>
<path d="M40.2999 88.6846H283.474" stroke="#E5E6E8" stroke-width="2" stroke-linecap="round"/>
<path d="M40.2999 73.2745H283.474" stroke="#E5E6E8" stroke-width="2" stroke-linecap="round"/>
<path d="M40.2999 65.5694H283.474" stroke="#E5E6E8" stroke-width="2" stroke-linecap="round"/>
<path d="M40.2999 57.8645H283.474" stroke="#E5E6E8" stroke-width="2" stroke-linecap="round"/>
<path d="M40.2999 50.1594H283.474" stroke="#E5E6E8" stroke-width="2" stroke-linecap="round"/>
<path d="M40.2999 34.7494H283.474" stroke="#E5E6E8" stroke-width="2" stroke-linecap="round"/>
<path d="M40.2999 27.0444H283.474" stroke="#E5E6E8" stroke-width="2" stroke-linecap="round"/>
<path d="M40.2999 19.3393H283.474" stroke="#E5E6E8" stroke-width="2" stroke-linecap="round"/>
<path d="M40.2999 11.6344H283.474" stroke="#E5E6E8" stroke-width="2" stroke-linecap="round"/>
<path d="M17.6598 44.0303C17.9158 44.0303 18.1291 44.121 18.2998 44.3023C18.4811 44.473 18.5718 44.6917 18.5718 44.9583C18.5718 45.2037 18.4811 45.4117 18.2998 45.5823C18.1184 45.753 17.9158 45.8383 17.6918 45.8383H17.5798L17.6278 45.9183C17.7878 46.2597 18.0331 46.5423 18.3638 46.7663C18.6944 46.9903 19.0838 47.1023 19.5318 47.1023C20.2891 47.1023 20.8331 46.7823 21.1638 46.1423C21.3664 45.7477 21.4678 45.065 21.4678 44.0943C21.4678 42.9957 21.3238 42.2543 21.0358 41.8703C20.7584 41.5183 20.4171 41.3423 20.0118 41.3423C19.1798 41.3423 18.5504 41.705 18.1238 42.4303C18.0811 42.505 18.0384 42.553 17.9958 42.5743C17.9638 42.585 17.8891 42.5903 17.7718 42.5903C17.5904 42.5903 17.4891 42.5583 17.4678 42.4943C17.4464 42.4517 17.4358 41.5183 17.4358 39.6943C17.4358 39.3743 17.4304 38.9957 17.4198 38.5583C17.4198 38.121 17.4198 37.8437 17.4198 37.7263C17.4198 37.129 17.4518 36.8303 17.5158 36.8303C17.5371 36.809 17.5584 36.7983 17.5798 36.7983L17.8678 36.8943C18.5611 37.1717 19.2704 37.3103 19.9958 37.3103C20.7531 37.3103 21.4784 37.161 22.1718 36.8623C22.2571 36.8197 22.3264 36.7983 22.3798 36.7983C22.4651 36.7983 22.5078 36.8943 22.5078 37.0863V37.2943C21.6438 38.329 20.5504 38.8463 19.2278 38.8463C18.8971 38.8463 18.5984 38.8143 18.3318 38.7503L18.1718 38.7183V41.4703C18.7798 40.9797 19.4038 40.7343 20.0438 40.7343C20.2464 40.7343 20.4651 40.761 20.6998 40.8143C21.4144 40.9957 21.9958 41.401 22.4438 42.0303C22.9024 42.6597 23.1318 43.3957 23.1318 44.2383C23.1318 45.209 22.7904 46.0463 22.1078 46.7503C21.4358 47.4543 20.6038 47.8063 19.6118 47.8063C18.9398 47.8063 18.3691 47.6197 17.8998 47.2463C17.6971 47.1183 17.5211 46.9423 17.3718 46.7183C17.0518 46.3343 16.8491 45.8597 16.7638 45.2943C16.7638 45.2623 16.7584 45.2143 16.7478 45.1503C16.7478 45.0757 16.7478 45.0223 16.7478 44.9903C16.7478 44.6917 16.8331 44.457 17.0038 44.2863C17.1744 44.1157 17.3931 44.0303 17.6598 44.0303ZM25.4838 38.0943C26.0811 37.2303 26.8971 36.7983 27.9318 36.7983C28.7104 36.7983 29.3931 37.065 29.9798 37.5983C30.2678 37.8757 30.5131 38.2383 30.7158 38.6863C31.1104 39.5717 31.3078 40.7877 31.3078 42.3343C31.3078 43.9877 31.0784 45.2517 30.6198 46.1263C30.3211 46.745 29.8838 47.193 29.3078 47.4703C28.8598 47.6943 28.4064 47.8063 27.9478 47.8063C26.7211 47.8063 25.8251 47.2463 25.2598 46.1263C24.8011 45.2517 24.5718 43.9877 24.5718 42.3343C24.5718 41.3423 24.6358 40.5263 24.7638 39.8863C24.9024 39.2357 25.1424 38.6383 25.4838 38.0943ZM29.0838 37.9023C28.7744 37.561 28.3958 37.3903 27.9478 37.3903C27.4998 37.3903 27.1158 37.561 26.7958 37.9023C26.5611 38.1477 26.4011 38.4463 26.3158 38.7983C26.2304 39.1503 26.1771 39.7583 26.1558 40.6223C26.1558 40.6863 26.1504 40.8943 26.1398 41.2463C26.1398 41.5983 26.1398 41.8917 26.1398 42.1263C26.1398 43.1503 26.1504 43.865 26.1718 44.2703C26.2144 45.017 26.2784 45.5557 26.3638 45.8863C26.4491 46.2063 26.6091 46.4837 26.8438 46.7183C27.1318 47.0383 27.4998 47.1983 27.9478 47.1983C28.3851 47.1983 28.7478 47.0383 29.0358 46.7183C29.2704 46.4837 29.4304 46.2063 29.5158 45.8863C29.6011 45.5557 29.6651 45.017 29.7078 44.2703C29.7291 43.865 29.7398 43.1503 29.7398 42.1263C29.7398 41.8917 29.7344 41.5983 29.7238 41.2463C29.7238 40.8943 29.7238 40.6863 29.7238 40.6223C29.7024 39.7583 29.6491 39.1503 29.5638 38.7983C29.4784 38.4463 29.3184 38.1477 29.0838 37.9023Z" fill="#34495E"/>
<path d="M23.3398 85.9795C23.1904 85.9475 22.5024 85.9315 21.2758 85.9315C19.9958 85.9315 19.2811 85.9475 19.1318 85.9795H18.9878V85.2435H19.4838C19.9424 85.2328 20.2251 85.2061 20.3318 85.1635C20.4171 85.1421 20.4811 85.0888 20.5238 85.0035C20.5344 84.9821 20.5398 84.6941 20.5398 84.1395V83.3395H16.3958V82.6035L18.8118 78.9075C20.4438 76.4328 21.2704 75.1901 21.2918 75.1795C21.3131 75.1581 21.4251 75.1475 21.6278 75.1475H21.9158L22.0118 75.2435V82.6035H23.4838V83.3395H22.0118V84.1555C22.0118 84.5928 22.0118 84.8488 22.0118 84.9235C22.0224 84.9981 22.0544 85.0621 22.1078 85.1155C22.1931 85.1901 22.4971 85.2328 23.0198 85.2435H23.4838V85.9795H23.3398ZM20.6358 82.6035V77.2595L17.1318 82.5875L18.8758 82.6035H20.6358ZM25.4838 76.6195C26.0811 75.7555 26.8971 75.3235 27.9318 75.3235C28.7104 75.3235 29.3931 75.5901 29.9798 76.1235C30.2678 76.4008 30.5131 76.7635 30.7158 77.2115C31.1104 78.0968 31.3078 79.3128 31.3078 80.8595C31.3078 82.5128 31.0784 83.7768 30.6198 84.6515C30.3211 85.2701 29.8838 85.7181 29.3078 85.9955C28.8598 86.2195 28.4064 86.3315 27.9478 86.3315C26.7211 86.3315 25.8251 85.7715 25.2598 84.6515C24.8011 83.7768 24.5718 82.5128 24.5718 80.8595C24.5718 79.8675 24.6358 79.0515 24.7638 78.4115C24.9024 77.7608 25.1424 77.1635 25.4838 76.6195ZM29.0838 76.4275C28.7744 76.0861 28.3958 75.9155 27.9478 75.9155C27.4998 75.9155 27.1158 76.0861 26.7958 76.4275C26.5611 76.6728 26.4011 76.9715 26.3158 77.3235C26.2304 77.6755 26.1771 78.2835 26.1558 79.1475C26.1558 79.2115 26.1504 79.4195 26.1398 79.7715C26.1398 80.1235 26.1398 80.4168 26.1398 80.6515C26.1398 81.6755 26.1504 82.3901 26.1718 82.7955C26.2144 83.5421 26.2784 84.0808 26.3638 84.4115C26.4491 84.7315 26.6091 85.0088 26.8438 85.2435C27.1318 85.5635 27.4998 85.7235 27.9478 85.7235C28.3851 85.7235 28.7478 85.5635 29.0358 85.2435C29.2704 85.0088 29.4304 84.7315 29.5158 84.4115C29.6011 84.0808 29.6651 83.5421 29.7078 82.7955C29.7291 82.3901 29.7398 81.6755 29.7398 80.6515C29.7398 80.4168 29.7344 80.1235 29.7238 79.7715C29.7238 79.4195 29.7238 79.2115 29.7238 79.1475C29.7024 78.2835 29.6491 77.6755 29.5638 77.3235C29.4784 76.9715 29.3184 76.6728 29.0838 76.4275Z" fill="#34495E"/>
<path d="M17.9798 117.097C17.6918 117.097 17.4624 117.006 17.2918 116.825C17.1318 116.643 17.0518 116.409 17.0518 116.121C17.0518 115.513 17.2918 115.006 17.7718 114.601C18.2518 114.185 18.8064 113.939 19.4358 113.865H19.6758C20.0491 113.865 20.2838 113.87 20.3798 113.881C20.7318 113.934 21.0891 114.046 21.4518 114.217C22.1558 114.569 22.5984 115.07 22.7798 115.721C22.8118 115.827 22.8278 115.971 22.8278 116.153C22.8278 116.782 22.6304 117.347 22.2358 117.849C21.8518 118.339 21.3664 118.691 20.7798 118.905C20.7264 118.926 20.7264 118.942 20.7798 118.953C20.8011 118.963 20.8544 118.979 20.9398 119.001C21.5904 119.182 22.1398 119.523 22.5878 120.025C23.0358 120.515 23.2598 121.075 23.2598 121.705C23.2598 122.142 23.1584 122.563 22.9558 122.969C22.6998 123.513 22.2784 123.966 21.6918 124.329C21.1158 124.681 20.4704 124.857 19.7558 124.857C19.0518 124.857 18.4278 124.707 17.8838 124.409C17.3398 124.11 16.9718 123.71 16.7798 123.209C16.6731 122.985 16.6198 122.723 16.6198 122.425C16.6198 122.126 16.7158 121.886 16.9078 121.705C17.1104 121.513 17.3504 121.417 17.6278 121.417C17.9264 121.417 18.1718 121.513 18.3638 121.705C18.5558 121.897 18.6518 122.137 18.6518 122.425C18.6518 122.67 18.5824 122.883 18.4438 123.065C18.3051 123.246 18.1184 123.363 17.8838 123.417L17.7718 123.449C18.3478 123.929 19.0091 124.169 19.7558 124.169C20.3424 124.169 20.7851 123.886 21.0838 123.321C21.2651 122.969 21.3558 122.43 21.3558 121.705V121.385C21.3558 120.371 21.0144 119.694 20.3318 119.353C20.1718 119.289 19.8464 119.251 19.3558 119.241L18.6838 119.225L18.6358 119.193C18.6144 119.161 18.6038 119.075 18.6038 118.937C18.6038 118.809 18.6198 118.729 18.6518 118.697C18.6838 118.665 18.7104 118.649 18.7318 118.649C19.0304 118.649 19.3398 118.622 19.6598 118.569C20.1291 118.505 20.4864 118.243 20.7318 117.785C20.9771 117.315 21.0998 116.755 21.0998 116.105C21.0998 115.411 20.9131 114.947 20.5398 114.713C20.3158 114.563 20.0651 114.489 19.7878 114.489C19.2544 114.489 18.7851 114.633 18.3798 114.921C18.3371 114.942 18.2891 114.979 18.2358 115.033C18.1824 115.075 18.1398 115.118 18.1078 115.161L18.0598 115.225C18.0918 115.235 18.1291 115.246 18.1718 115.257C18.3851 115.278 18.5611 115.379 18.6998 115.561C18.8491 115.742 18.9238 115.95 18.9238 116.185C18.9238 116.441 18.8331 116.659 18.6518 116.841C18.4811 117.011 18.2571 117.097 17.9798 117.097ZM25.4838 115.145C26.0811 114.281 26.8971 113.849 27.9318 113.849C28.7104 113.849 29.3931 114.115 29.9798 114.649C30.2678 114.926 30.5131 115.289 30.7158 115.737C31.1104 116.622 31.3078 117.838 31.3078 119.385C31.3078 121.038 31.0784 122.302 30.6198 123.177C30.3211 123.795 29.8838 124.243 29.3078 124.521C28.8598 124.745 28.4064 124.857 27.9478 124.857C26.7211 124.857 25.8251 124.297 25.2598 123.177C24.8011 122.302 24.5718 121.038 24.5718 119.385C24.5718 118.393 24.6358 117.577 24.7638 116.937C24.9024 116.286 25.1424 115.689 25.4838 115.145ZM29.0838 114.953C28.7744 114.611 28.3958 114.441 27.9478 114.441C27.4998 114.441 27.1158 114.611 26.7958 114.953C26.5611 115.198 26.4011 115.497 26.3158 115.849C26.2304 116.201 26.1771 116.809 26.1558 117.673C26.1558 117.737 26.1504 117.945 26.1398 118.297C26.1398 118.649 26.1398 118.942 26.1398 119.177C26.1398 120.201 26.1504 120.915 26.1718 121.321C26.2144 122.067 26.2784 122.606 26.3638 122.937C26.4491 123.257 26.6091 123.534 26.8438 123.769C27.1318 124.089 27.4998 124.249 27.9478 124.249C28.3851 124.249 28.7478 124.089 29.0358 123.769C29.2704 123.534 29.4304 123.257 29.5158 122.937C29.6011 122.606 29.6651 122.067 29.7078 121.321C29.7291 120.915 29.7398 120.201 29.7398 119.177C29.7398 118.942 29.7344 118.649 29.7238 118.297C29.7238 117.945 29.7238 117.737 29.7238 117.673C29.7024 116.809 29.6491 116.201 29.5638 115.849C29.4784 115.497 29.3184 115.198 29.0838 114.953Z" fill="#34495E"/>
<path d="M17.7078 156.166C17.4091 156.166 17.1744 156.07 17.0038 155.878C16.8331 155.686 16.7478 155.451 16.7478 155.174C16.7478 154.406 17.0358 153.75 17.6118 153.206C18.1984 152.651 18.8971 152.374 19.7078 152.374C20.6251 152.374 21.3824 152.624 21.9798 153.126C22.5878 153.616 22.9611 154.262 23.0998 155.062C23.1211 155.254 23.1318 155.43 23.1318 155.59C23.1318 156.208 22.9451 156.79 22.5718 157.334C22.2731 157.782 21.6704 158.395 20.7638 159.174C20.3798 159.504 19.8464 159.995 19.1638 160.646L18.2198 161.542L19.4358 161.558C21.1104 161.558 22.0011 161.531 22.1078 161.478C22.1504 161.467 22.2038 161.355 22.2678 161.142C22.3104 161.024 22.3851 160.662 22.4918 160.054V160.006H23.1318V160.054L22.6838 162.982V163.03H16.7478V162.726C16.7478 162.512 16.7584 162.39 16.7798 162.358C16.7904 162.347 17.2384 161.84 18.1238 160.838C19.2864 159.547 20.0331 158.694 20.3638 158.278C21.0784 157.307 21.4358 156.416 21.4358 155.606C21.4358 154.902 21.2491 154.315 20.8758 153.846C20.5131 153.366 20.0011 153.126 19.3398 153.126C18.7211 153.126 18.2198 153.403 17.8358 153.958C17.8144 154 17.7824 154.059 17.7398 154.134C17.7078 154.187 17.6918 154.219 17.6918 154.23C17.6918 154.24 17.7184 154.246 17.7718 154.246C18.0384 154.246 18.2518 154.342 18.4118 154.534C18.5824 154.726 18.6678 154.95 18.6678 155.206C18.6678 155.472 18.5771 155.702 18.3958 155.894C18.2251 156.075 17.9958 156.166 17.7078 156.166ZM25.4838 153.67C26.0811 152.806 26.8971 152.374 27.9318 152.374C28.7104 152.374 29.3931 152.64 29.9798 153.174C30.2678 153.451 30.5131 153.814 30.7158 154.262C31.1104 155.147 31.3078 156.363 31.3078 157.91C31.3078 159.563 31.0784 160.827 30.6198 161.702C30.3211 162.32 29.8838 162.768 29.3078 163.046C28.8598 163.27 28.4064 163.382 27.9478 163.382C26.7211 163.382 25.8251 162.822 25.2598 161.702C24.8011 160.827 24.5718 159.563 24.5718 157.91C24.5718 156.918 24.6358 156.102 24.7638 155.462C24.9024 154.811 25.1424 154.214 25.4838 153.67ZM29.0838 153.478C28.7744 153.136 28.3958 152.966 27.9478 152.966C27.4998 152.966 27.1158 153.136 26.7958 153.478C26.5611 153.723 26.4011 154.022 26.3158 154.374C26.2304 154.726 26.1771 155.334 26.1558 156.198C26.1558 156.262 26.1504 156.47 26.1398 156.822C26.1398 157.174 26.1398 157.467 26.1398 157.702C26.1398 158.726 26.1504 159.44 26.1718 159.846C26.2144 160.592 26.2784 161.131 26.3638 161.462C26.4491 161.782 26.6091 162.059 26.8438 162.294C27.1318 162.614 27.4998 162.774 27.9478 162.774C28.3851 162.774 28.7478 162.614 29.0358 162.294C29.2704 162.059 29.4304 161.782 29.5158 161.462C29.6011 161.131 29.6651 160.592 29.7078 159.846C29.7291 159.44 29.7398 158.726 29.7398 157.702C29.7398 157.467 29.7344 157.174 29.7238 156.822C29.7238 156.47 29.7238 156.262 29.7238 156.198C29.7024 155.334 29.6491 154.726 29.5638 154.374C29.4784 154.022 29.3184 153.723 29.0838 153.478Z" fill="#34495E"/>
<path d="M22.6038 201.555C22.4224 201.523 21.5744 201.507 20.0598 201.507C18.5664 201.507 17.7291 201.523 17.5478 201.555H17.3558V200.819H17.7718C18.3904 200.819 18.7904 200.803 18.9718 200.771C19.0571 200.76 19.1851 200.696 19.3558 200.579V192.307C19.3344 192.307 19.2918 192.323 19.2278 192.355C18.7371 192.547 18.1878 192.648 17.5798 192.659H17.2758V191.923H17.5798C18.4758 191.891 19.2224 191.688 19.8198 191.315C20.0118 191.208 20.1771 191.085 20.3158 190.947C20.3371 190.915 20.4011 190.899 20.5078 190.899C20.6144 190.899 20.7051 190.931 20.7798 190.995V195.779L20.7958 200.579C20.9558 200.739 21.3024 200.819 21.8358 200.819H22.3638H22.7798V201.555H22.6038ZM25.4838 192.195C26.0811 191.331 26.8971 190.899 27.9318 190.899C28.7104 190.899 29.3931 191.165 29.9798 191.699C30.2678 191.976 30.5131 192.339 30.7158 192.787C31.1104 193.672 31.3078 194.888 31.3078 196.435C31.3078 198.088 31.0784 199.352 30.6198 200.227C30.3211 200.845 29.8838 201.293 29.3078 201.571C28.8598 201.795 28.4064 201.907 27.9478 201.907C26.7211 201.907 25.8251 201.347 25.2598 200.227C24.8011 199.352 24.5718 198.088 24.5718 196.435C24.5718 195.443 24.6358 194.627 24.7638 193.987C24.9024 193.336 25.1424 192.739 25.4838 192.195ZM29.0838 192.003C28.7744 191.661 28.3958 191.491 27.9478 191.491C27.4998 191.491 27.1158 191.661 26.7958 192.003C26.5611 192.248 26.4011 192.547 26.3158 192.899C26.2304 193.251 26.1771 193.859 26.1558 194.723C26.1558 194.787 26.1504 194.995 26.1398 195.347C26.1398 195.699 26.1398 195.992 26.1398 196.227C26.1398 197.251 26.1504 197.965 26.1718 198.371C26.2144 199.117 26.2784 199.656 26.3638 199.987C26.4491 200.307 26.6091 200.584 26.8438 200.819C27.1318 201.139 27.4998 201.299 27.9478 201.299C28.3851 201.299 28.7478 201.139 29.0358 200.819C29.2704 200.584 29.4304 200.307 29.5158 199.987C29.6011 199.656 29.6651 199.117 29.7078 198.371C29.7291 197.965 29.7398 197.251 29.7398 196.227C29.7398 195.992 29.7344 195.699 29.7238 195.347C29.7238 194.995 29.7238 194.787 29.7238 194.723C29.7024 193.859 29.6491 193.251 29.5638 192.899C29.4784 192.547 29.3184 192.248 29.0838 192.003Z" fill="#34495E"/>
<path d="M25.4838 230.802C26.0811 229.938 26.8971 229.506 27.9318 229.506C28.7104 229.506 29.3931 229.773 29.9798 230.306C30.2678 230.584 30.5131 230.946 30.7158 231.394C31.1104 232.28 31.3078 233.496 31.3078 235.042C31.3078 236.696 31.0784 237.96 30.6198 238.834C30.3211 239.453 29.8838 239.901 29.3078 240.178C28.8598 240.402 28.4064 240.514 27.9478 240.514C26.7211 240.514 25.8251 239.954 25.2598 238.834C24.8011 237.96 24.5718 236.696 24.5718 235.042C24.5718 234.05 24.6358 233.234 24.7638 232.594C24.9024 231.944 25.1424 231.346 25.4838 230.802ZM29.0838 230.61C28.7744 230.269 28.3958 230.098 27.9478 230.098C27.4998 230.098 27.1158 230.269 26.7958 230.61C26.5611 230.856 26.4011 231.154 26.3158 231.506C26.2304 231.858 26.1771 232.466 26.1558 233.33C26.1558 233.394 26.1504 233.602 26.1398 233.954C26.1398 234.306 26.1398 234.6 26.1398 234.834C26.1398 235.858 26.1504 236.573 26.1718 236.978C26.2144 237.725 26.2784 238.264 26.3638 238.594C26.4491 238.914 26.6091 239.192 26.8438 239.426C27.1318 239.746 27.4998 239.906 27.9478 239.906C28.3851 239.906 28.7478 239.746 29.0358 239.426C29.2704 239.192 29.4304 238.914 29.5158 238.594C29.6011 238.264 29.6651 237.725 29.7078 236.978C29.7291 236.573 29.7398 235.858 29.7398 234.834C29.7398 234.6 29.7344 234.306 29.7238 233.954C29.7238 233.602 29.7238 233.394 29.7238 233.33C29.7024 232.466 29.6491 231.858 29.5638 231.506C29.4784 231.154 29.3184 230.856 29.0838 230.61Z" fill="#34495E"/>
<path d="M53.0119 252.537C53.2679 252.537 53.4813 252.628 53.6519 252.809C53.8333 252.98 53.9239 253.198 53.9239 253.465C53.9239 253.71 53.8333 253.918 53.6519 254.089C53.4706 254.26 53.2679 254.345 53.0439 254.345H52.9319L52.9799 254.425C53.1399 254.766 53.3853 255.049 53.7159 255.273C54.0466 255.497 54.4359 255.609 54.8839 255.609C55.6413 255.609 56.1853 255.289 56.5159 254.649C56.7186 254.254 56.8199 253.572 56.8199 252.601C56.8199 251.502 56.6759 250.761 56.3879 250.377C56.1106 250.025 55.7693 249.849 55.3639 249.849C54.5319 249.849 53.9026 250.212 53.4759 250.937C53.4333 251.012 53.3906 251.06 53.3479 251.081C53.3159 251.092 53.2413 251.097 53.1239 251.097C52.9426 251.097 52.8413 251.065 52.8199 251.001C52.7986 250.958 52.7879 250.025 52.7879 248.201C52.7879 247.881 52.7826 247.502 52.7719 247.065C52.7719 246.628 52.7719 246.35 52.7719 246.233C52.7719 245.636 52.8039 245.337 52.8679 245.337C52.8893 245.316 52.9106 245.305 52.9319 245.305L53.2199 245.401C53.9133 245.678 54.6226 245.817 55.3479 245.817C56.1053 245.817 56.8306 245.668 57.5239 245.369C57.6093 245.326 57.6786 245.305 57.7319 245.305C57.8173 245.305 57.8599 245.401 57.8599 245.593V245.801C56.9959 246.836 55.9026 247.353 54.5799 247.353C54.2493 247.353 53.9506 247.321 53.6839 247.257L53.5239 247.225V249.977C54.1319 249.486 54.7559 249.241 55.3959 249.241C55.5986 249.241 55.8173 249.268 56.0519 249.321C56.7666 249.502 57.3479 249.908 57.7959 250.537C58.2546 251.166 58.4839 251.902 58.4839 252.745C58.4839 253.716 58.1426 254.553 57.4599 255.257C56.7879 255.961 55.9559 256.313 54.9639 256.313C54.2919 256.313 53.7213 256.126 53.2519 255.753C53.0493 255.625 52.8733 255.449 52.7239 255.225C52.4039 254.841 52.2013 254.366 52.1159 253.801C52.1159 253.769 52.1106 253.721 52.0999 253.657C52.0999 253.582 52.0999 253.529 52.0999 253.497C52.0999 253.198 52.1853 252.964 52.3559 252.793C52.5266 252.622 52.7453 252.537 53.0119 252.537Z" fill="#34495E"/>
<path d="M83.9559 255.961C83.7746 255.929 82.9266 255.913 81.4119 255.913C79.9186 255.913 79.0813 255.929 78.8999 255.961H78.7079V255.225H79.1239C79.7426 255.225 80.1426 255.209 80.3239 255.177C80.4093 255.166 80.5373 255.102 80.7079 254.985V246.713C80.6866 246.713 80.6439 246.729 80.5799 246.761C80.0893 246.953 79.5399 247.054 78.9319 247.065H78.6279V246.329H78.9319C79.8279 246.297 80.5746 246.094 81.1719 245.721C81.3639 245.614 81.5293 245.492 81.6679 245.353C81.6893 245.321 81.7533 245.305 81.8599 245.305C81.9666 245.305 82.0573 245.337 82.1319 245.401V250.185L82.1479 254.985C82.3079 255.145 82.6546 255.225 83.1879 255.225H83.7159H84.1319V255.961H83.9559ZM86.8359 246.601C87.4333 245.737 88.2493 245.305 89.2839 245.305C90.0626 245.305 90.7453 245.572 91.3319 246.105C91.6199 246.382 91.8653 246.745 92.0679 247.193C92.4626 248.078 92.6599 249.294 92.6599 250.841C92.6599 252.494 92.4306 253.758 91.9719 254.633C91.6733 255.252 91.2359 255.7 90.6599 255.977C90.2119 256.201 89.7586 256.313 89.2999 256.313C88.0733 256.313 87.1773 255.753 86.6119 254.633C86.1533 253.758 85.9239 252.494 85.9239 250.841C85.9239 249.849 85.9879 249.033 86.1159 248.393C86.2546 247.742 86.4946 247.145 86.8359 246.601ZM90.4359 246.409C90.1266 246.068 89.7479 245.897 89.2999 245.897C88.8519 245.897 88.4679 246.068 88.1479 246.409C87.9133 246.654 87.7533 246.953 87.6679 247.305C87.5826 247.657 87.5293 248.265 87.5079 249.129C87.5079 249.193 87.5026 249.401 87.4919 249.753C87.4919 250.105 87.4919 250.398 87.4919 250.633C87.4919 251.657 87.5026 252.372 87.5239 252.777C87.5666 253.524 87.6306 254.062 87.7159 254.393C87.8013 254.713 87.9613 254.99 88.1959 255.225C88.4839 255.545 88.8519 255.705 89.2999 255.705C89.7373 255.705 90.0999 255.545 90.3879 255.225C90.6226 254.99 90.7826 254.713 90.8679 254.393C90.9533 254.062 91.0173 253.524 91.0599 252.777C91.0813 252.372 91.0919 251.657 91.0919 250.633C91.0919 250.398 91.0866 250.105 91.0759 249.753C91.0759 249.401 91.0759 249.193 91.0759 249.129C91.0546 248.265 91.0013 247.657 90.9159 247.305C90.8306 246.953 90.6706 246.654 90.4359 246.409Z" fill="#34495E"/>
<path d="M113.956 255.961C113.775 255.929 112.927 255.913 111.412 255.913C109.919 255.913 109.081 255.929 108.9 255.961H108.708V255.225H109.124C109.743 255.225 110.143 255.209 110.324 255.177C110.409 255.166 110.537 255.102 110.708 254.985V246.713C110.687 246.713 110.644 246.729 110.58 246.761C110.089 246.953 109.54 247.054 108.932 247.065H108.628V246.329H108.932C109.828 246.297 110.575 246.094 111.172 245.721C111.364 245.614 111.529 245.492 111.668 245.353C111.689 245.321 111.753 245.305 111.86 245.305C111.967 245.305 112.057 245.337 112.132 245.401V250.185L112.148 254.985C112.308 255.145 112.655 255.225 113.188 255.225H113.716H114.132V255.961H113.956ZM117.012 252.537C117.268 252.537 117.481 252.628 117.652 252.809C117.833 252.98 117.924 253.198 117.924 253.465C117.924 253.71 117.833 253.918 117.652 254.089C117.471 254.26 117.268 254.345 117.044 254.345H116.932L116.98 254.425C117.14 254.766 117.385 255.049 117.716 255.273C118.047 255.497 118.436 255.609 118.884 255.609C119.641 255.609 120.185 255.289 120.516 254.649C120.719 254.254 120.82 253.572 120.82 252.601C120.82 251.502 120.676 250.761 120.388 250.377C120.111 250.025 119.769 249.849 119.364 249.849C118.532 249.849 117.903 250.212 117.476 250.937C117.433 251.012 117.391 251.06 117.348 251.081C117.316 251.092 117.241 251.097 117.124 251.097C116.943 251.097 116.841 251.065 116.82 251.001C116.799 250.958 116.788 250.025 116.788 248.201C116.788 247.881 116.783 247.502 116.772 247.065C116.772 246.628 116.772 246.35 116.772 246.233C116.772 245.636 116.804 245.337 116.868 245.337C116.889 245.316 116.911 245.305 116.932 245.305L117.22 245.401C117.913 245.678 118.623 245.817 119.348 245.817C120.105 245.817 120.831 245.668 121.524 245.369C121.609 245.326 121.679 245.305 121.732 245.305C121.817 245.305 121.86 245.401 121.86 245.593V245.801C120.996 246.836 119.903 247.353 118.58 247.353C118.249 247.353 117.951 247.321 117.684 247.257L117.524 247.225V249.977C118.132 249.486 118.756 249.241 119.396 249.241C119.599 249.241 119.817 249.268 120.052 249.321C120.767 249.502 121.348 249.908 121.796 250.537C122.255 251.166 122.484 251.902 122.484 252.745C122.484 253.716 122.143 254.553 121.46 255.257C120.788 255.961 119.956 256.313 118.964 256.313C118.292 256.313 117.721 256.126 117.252 255.753C117.049 255.625 116.873 255.449 116.724 255.225C116.404 254.841 116.201 254.366 116.116 253.801C116.116 253.769 116.111 253.721 116.1 253.657C116.1 253.582 116.1 253.529 116.1 253.497C116.1 253.198 116.185 252.964 116.356 252.793C116.527 252.622 116.745 252.537 117.012 252.537Z" fill="#34495E"/>
<path d="M139.06 249.097C138.761 249.097 138.527 249.001 138.356 248.809C138.185 248.617 138.1 248.382 138.1 248.105C138.1 247.337 138.388 246.681 138.964 246.137C139.551 245.582 140.249 245.305 141.06 245.305C141.977 245.305 142.735 245.556 143.332 246.057C143.94 246.548 144.313 247.193 144.452 247.993C144.473 248.185 144.484 248.361 144.484 248.521C144.484 249.14 144.297 249.721 143.924 250.265C143.625 250.713 143.023 251.326 142.116 252.105C141.732 252.436 141.199 252.926 140.516 253.577L139.572 254.473L140.788 254.489C142.463 254.489 143.353 254.462 143.46 254.409C143.503 254.398 143.556 254.286 143.62 254.073C143.663 253.956 143.737 253.593 143.844 252.985V252.937H144.484V252.985L144.036 255.913V255.961H138.1V255.657C138.1 255.444 138.111 255.321 138.132 255.289C138.143 255.278 138.591 254.772 139.476 253.769C140.639 252.478 141.385 251.625 141.716 251.209C142.431 250.238 142.788 249.348 142.788 248.537C142.788 247.833 142.601 247.246 142.228 246.777C141.865 246.297 141.353 246.057 140.692 246.057C140.073 246.057 139.572 246.334 139.188 246.889C139.167 246.932 139.135 246.99 139.092 247.065C139.06 247.118 139.044 247.15 139.044 247.161C139.044 247.172 139.071 247.177 139.124 247.177C139.391 247.177 139.604 247.273 139.764 247.465C139.935 247.657 140.02 247.881 140.02 248.137C140.02 248.404 139.929 248.633 139.748 248.825C139.577 249.006 139.348 249.097 139.06 249.097ZM146.836 246.601C147.433 245.737 148.249 245.305 149.284 245.305C150.063 245.305 150.745 245.572 151.332 246.105C151.62 246.382 151.865 246.745 152.068 247.193C152.463 248.078 152.66 249.294 152.66 250.841C152.66 252.494 152.431 253.758 151.972 254.633C151.673 255.252 151.236 255.7 150.66 255.977C150.212 256.201 149.759 256.313 149.3 256.313C148.073 256.313 147.177 255.753 146.612 254.633C146.153 253.758 145.924 252.494 145.924 250.841C145.924 249.849 145.988 249.033 146.116 248.393C146.255 247.742 146.495 247.145 146.836 246.601ZM150.436 246.409C150.127 246.068 149.748 245.897 149.3 245.897C148.852 245.897 148.468 246.068 148.148 246.409C147.913 246.654 147.753 246.953 147.668 247.305C147.583 247.657 147.529 248.265 147.508 249.129C147.508 249.193 147.503 249.401 147.492 249.753C147.492 250.105 147.492 250.398 147.492 250.633C147.492 251.657 147.503 252.372 147.524 252.777C147.567 253.524 147.631 254.062 147.716 254.393C147.801 254.713 147.961 254.99 148.196 255.225C148.484 255.545 148.852 255.705 149.3 255.705C149.737 255.705 150.1 255.545 150.388 255.225C150.623 254.99 150.783 254.713 150.868 254.393C150.953 254.062 151.017 253.524 151.06 252.777C151.081 252.372 151.092 251.657 151.092 250.633C151.092 250.398 151.087 250.105 151.076 249.753C151.076 249.401 151.076 249.193 151.076 249.129C151.055 248.265 151.001 247.657 150.916 247.305C150.831 246.953 150.671 246.654 150.436 246.409Z" fill="#34495E"/>
<path d="M169.06 249.097C168.761 249.097 168.527 249.001 168.356 248.809C168.185 248.617 168.1 248.382 168.1 248.105C168.1 247.337 168.388 246.681 168.964 246.137C169.551 245.582 170.249 245.305 171.06 245.305C171.977 245.305 172.735 245.556 173.332 246.057C173.94 246.548 174.313 247.193 174.452 247.993C174.473 248.185 174.484 248.361 174.484 248.521C174.484 249.14 174.297 249.721 173.924 250.265C173.625 250.713 173.023 251.326 172.116 252.105C171.732 252.436 171.199 252.926 170.516 253.577L169.572 254.473L170.788 254.489C172.463 254.489 173.353 254.462 173.46 254.409C173.503 254.398 173.556 254.286 173.62 254.073C173.663 253.956 173.737 253.593 173.844 252.985V252.937H174.484V252.985L174.036 255.913V255.961H168.1V255.657C168.1 255.444 168.111 255.321 168.132 255.289C168.143 255.278 168.591 254.772 169.476 253.769C170.639 252.478 171.385 251.625 171.716 251.209C172.431 250.238 172.788 249.348 172.788 248.537C172.788 247.833 172.601 247.246 172.228 246.777C171.865 246.297 171.353 246.057 170.692 246.057C170.073 246.057 169.572 246.334 169.188 246.889C169.167 246.932 169.135 246.99 169.092 247.065C169.06 247.118 169.044 247.15 169.044 247.161C169.044 247.172 169.071 247.177 169.124 247.177C169.391 247.177 169.604 247.273 169.764 247.465C169.935 247.657 170.02 247.881 170.02 248.137C170.02 248.404 169.929 248.633 169.748 248.825C169.577 249.006 169.348 249.097 169.06 249.097ZM177.012 252.537C177.268 252.537 177.481 252.628 177.652 252.809C177.833 252.98 177.924 253.198 177.924 253.465C177.924 253.71 177.833 253.918 177.652 254.089C177.471 254.26 177.268 254.345 177.044 254.345H176.932L176.98 254.425C177.14 254.766 177.385 255.049 177.716 255.273C178.047 255.497 178.436 255.609 178.884 255.609C179.641 255.609 180.185 255.289 180.516 254.649C180.719 254.254 180.82 253.572 180.82 252.601C180.82 251.502 180.676 250.761 180.388 250.377C180.111 250.025 179.769 249.849 179.364 249.849C178.532 249.849 177.903 250.212 177.476 250.937C177.433 251.012 177.391 251.06 177.348 251.081C177.316 251.092 177.241 251.097 177.124 251.097C176.943 251.097 176.841 251.065 176.82 251.001C176.799 250.958 176.788 250.025 176.788 248.201C176.788 247.881 176.783 247.502 176.772 247.065C176.772 246.628 176.772 246.35 176.772 246.233C176.772 245.636 176.804 245.337 176.868 245.337C176.889 245.316 176.911 245.305 176.932 245.305L177.22 245.401C177.913 245.678 178.623 245.817 179.348 245.817C180.105 245.817 180.831 245.668 181.524 245.369C181.609 245.326 181.679 245.305 181.732 245.305C181.817 245.305 181.86 245.401 181.86 245.593V245.801C180.996 246.836 179.903 247.353 178.58 247.353C178.249 247.353 177.951 247.321 177.684 247.257L177.524 247.225V249.977C178.132 249.486 178.756 249.241 179.396 249.241C179.599 249.241 179.817 249.268 180.052 249.321C180.767 249.502 181.348 249.908 181.796 250.537C182.255 251.166 182.484 251.902 182.484 252.745C182.484 253.716 182.143 254.553 181.46 255.257C180.788 255.961 179.956 256.313 178.964 256.313C178.292 256.313 177.721 256.126 177.252 255.753C177.049 255.625 176.873 255.449 176.724 255.225C176.404 254.841 176.201 254.366 176.116 253.801C176.116 253.769 176.111 253.721 176.1 253.657C176.1 253.582 176.1 253.529 176.1 253.497C176.1 253.198 176.185 252.964 176.356 252.793C176.527 252.622 176.745 252.537 177.012 252.537Z" fill="#34495E"/>
<path d="M199.332 248.553C199.044 248.553 198.815 248.462 198.644 248.281C198.484 248.1 198.404 247.865 198.404 247.577C198.404 246.969 198.644 246.462 199.124 246.057C199.604 245.641 200.159 245.396 200.788 245.321H201.028C201.401 245.321 201.636 245.326 201.732 245.337C202.084 245.39 202.441 245.502 202.804 245.673C203.508 246.025 203.951 246.526 204.132 247.177C204.164 247.284 204.18 247.428 204.18 247.609C204.18 248.238 203.983 248.804 203.588 249.305C203.204 249.796 202.719 250.148 202.132 250.361C202.079 250.382 202.079 250.398 202.132 250.409C202.153 250.42 202.207 250.436 202.292 250.457C202.943 250.638 203.492 250.98 203.94 251.481C204.388 251.972 204.612 252.532 204.612 253.161C204.612 253.598 204.511 254.02 204.308 254.425C204.052 254.969 203.631 255.422 203.044 255.785C202.468 256.137 201.823 256.313 201.108 256.313C200.404 256.313 199.78 256.164 199.236 255.865C198.692 255.566 198.324 255.166 198.132 254.665C198.025 254.441 197.972 254.18 197.972 253.881C197.972 253.582 198.068 253.342 198.26 253.161C198.463 252.969 198.703 252.873 198.98 252.873C199.279 252.873 199.524 252.969 199.716 253.161C199.908 253.353 200.004 253.593 200.004 253.881C200.004 254.126 199.935 254.34 199.796 254.521C199.657 254.702 199.471 254.82 199.236 254.873L199.124 254.905C199.7 255.385 200.361 255.625 201.108 255.625C201.695 255.625 202.137 255.342 202.436 254.777C202.617 254.425 202.708 253.886 202.708 253.161V252.841C202.708 251.828 202.367 251.15 201.684 250.809C201.524 250.745 201.199 250.708 200.708 250.697L200.036 250.681L199.988 250.649C199.967 250.617 199.956 250.532 199.956 250.393C199.956 250.265 199.972 250.185 200.004 250.153C200.036 250.121 200.063 250.105 200.084 250.105C200.383 250.105 200.692 250.078 201.012 250.025C201.481 249.961 201.839 249.7 202.084 249.241C202.329 248.772 202.452 248.212 202.452 247.561C202.452 246.868 202.265 246.404 201.892 246.169C201.668 246.02 201.417 245.945 201.14 245.945C200.607 245.945 200.137 246.089 199.732 246.377C199.689 246.398 199.641 246.436 199.588 246.489C199.535 246.532 199.492 246.574 199.46 246.617L199.412 246.681C199.444 246.692 199.481 246.702 199.524 246.713C199.737 246.734 199.913 246.836 200.052 247.017C200.201 247.198 200.276 247.406 200.276 247.641C200.276 247.897 200.185 248.116 200.004 248.297C199.833 248.468 199.609 248.553 199.332 248.553ZM206.836 246.601C207.433 245.737 208.249 245.305 209.284 245.305C210.063 245.305 210.745 245.572 211.332 246.105C211.62 246.382 211.865 246.745 212.068 247.193C212.463 248.078 212.66 249.294 212.66 250.841C212.66 252.494 212.431 253.758 211.972 254.633C211.673 255.252 211.236 255.7 210.66 255.977C210.212 256.201 209.759 256.313 209.3 256.313C208.073 256.313 207.177 255.753 206.612 254.633C206.153 253.758 205.924 252.494 205.924 250.841C205.924 249.849 205.988 249.033 206.116 248.393C206.255 247.742 206.495 247.145 206.836 246.601ZM210.436 246.409C210.127 246.068 209.748 245.897 209.3 245.897C208.852 245.897 208.468 246.068 208.148 246.409C207.913 246.654 207.753 246.953 207.668 247.305C207.583 247.657 207.529 248.265 207.508 249.129C207.508 249.193 207.503 249.401 207.492 249.753C207.492 250.105 207.492 250.398 207.492 250.633C207.492 251.657 207.503 252.372 207.524 252.777C207.567 253.524 207.631 254.062 207.716 254.393C207.801 254.713 207.961 254.99 208.196 255.225C208.484 255.545 208.852 255.705 209.3 255.705C209.737 255.705 210.1 255.545 210.388 255.225C210.623 254.99 210.783 254.713 210.868 254.393C210.953 254.062 211.017 253.524 211.06 252.777C211.081 252.372 211.092 251.657 211.092 250.633C211.092 250.398 211.087 250.105 211.076 249.753C211.076 249.401 211.076 249.193 211.076 249.129C211.055 248.265 211.001 247.657 210.916 247.305C210.831 246.953 210.671 246.654 210.436 246.409Z" fill="#34495E"/>
<path d="M229.332 248.553C229.044 248.553 228.815 248.462 228.644 248.281C228.484 248.1 228.404 247.865 228.404 247.577C228.404 246.969 228.644 246.462 229.124 246.057C229.604 245.641 230.159 245.396 230.788 245.321H231.028C231.401 245.321 231.636 245.326 231.732 245.337C232.084 245.39 232.441 245.502 232.804 245.673C233.508 246.025 233.951 246.526 234.132 247.177C234.164 247.284 234.18 247.428 234.18 247.609C234.18 248.238 233.983 248.804 233.588 249.305C233.204 249.796 232.719 250.148 232.132 250.361C232.079 250.382 232.079 250.398 232.132 250.409C232.153 250.42 232.207 250.436 232.292 250.457C232.943 250.638 233.492 250.98 233.94 251.481C234.388 251.972 234.612 252.532 234.612 253.161C234.612 253.598 234.511 254.02 234.308 254.425C234.052 254.969 233.631 255.422 233.044 255.785C232.468 256.137 231.823 256.313 231.108 256.313C230.404 256.313 229.78 256.164 229.236 255.865C228.692 255.566 228.324 255.166 228.132 254.665C228.025 254.441 227.972 254.18 227.972 253.881C227.972 253.582 228.068 253.342 228.26 253.161C228.463 252.969 228.703 252.873 228.98 252.873C229.279 252.873 229.524 252.969 229.716 253.161C229.908 253.353 230.004 253.593 230.004 253.881C230.004 254.126 229.935 254.34 229.796 254.521C229.657 254.702 229.471 254.82 229.236 254.873L229.124 254.905C229.7 255.385 230.361 255.625 231.108 255.625C231.695 255.625 232.137 255.342 232.436 254.777C232.617 254.425 232.708 253.886 232.708 253.161V252.841C232.708 251.828 232.367 251.15 231.684 250.809C231.524 250.745 231.199 250.708 230.708 250.697L230.036 250.681L229.988 250.649C229.967 250.617 229.956 250.532 229.956 250.393C229.956 250.265 229.972 250.185 230.004 250.153C230.036 250.121 230.063 250.105 230.084 250.105C230.383 250.105 230.692 250.078 231.012 250.025C231.481 249.961 231.839 249.7 232.084 249.241C232.329 248.772 232.452 248.212 232.452 247.561C232.452 246.868 232.265 246.404 231.892 246.169C231.668 246.02 231.417 245.945 231.14 245.945C230.607 245.945 230.137 246.089 229.732 246.377C229.689 246.398 229.641 246.436 229.588 246.489C229.535 246.532 229.492 246.574 229.46 246.617L229.412 246.681C229.444 246.692 229.481 246.702 229.524 246.713C229.737 246.734 229.913 246.836 230.052 247.017C230.201 247.198 230.276 247.406 230.276 247.641C230.276 247.897 230.185 248.116 230.004 248.297C229.833 248.468 229.609 248.553 229.332 248.553ZM237.012 252.537C237.268 252.537 237.481 252.628 237.652 252.809C237.833 252.98 237.924 253.198 237.924 253.465C237.924 253.71 237.833 253.918 237.652 254.089C237.471 254.26 237.268 254.345 237.044 254.345H236.932L236.98 254.425C237.14 254.766 237.385 255.049 237.716 255.273C238.047 255.497 238.436 255.609 238.884 255.609C239.641 255.609 240.185 255.289 240.516 254.649C240.719 254.254 240.82 253.572 240.82 252.601C240.82 251.502 240.676 250.761 240.388 250.377C240.111 250.025 239.769 249.849 239.364 249.849C238.532 249.849 237.903 250.212 237.476 250.937C237.433 251.012 237.391 251.06 237.348 251.081C237.316 251.092 237.241 251.097 237.124 251.097C236.943 251.097 236.841 251.065 236.82 251.001C236.799 250.958 236.788 250.025 236.788 248.201C236.788 247.881 236.783 247.502 236.772 247.065C236.772 246.628 236.772 246.35 236.772 246.233C236.772 245.636 236.804 245.337 236.868 245.337C236.889 245.316 236.911 245.305 236.932 245.305L237.22 245.401C237.913 245.678 238.623 245.817 239.348 245.817C240.105 245.817 240.831 245.668 241.524 245.369C241.609 245.326 241.679 245.305 241.732 245.305C241.817 245.305 241.86 245.401 241.86 245.593V245.801C240.996 246.836 239.903 247.353 238.58 247.353C238.249 247.353 237.951 247.321 237.684 247.257L237.524 247.225V249.977C238.132 249.486 238.756 249.241 239.396 249.241C239.599 249.241 239.817 249.268 240.052 249.321C240.767 249.502 241.348 249.908 241.796 250.537C242.255 251.166 242.484 251.902 242.484 252.745C242.484 253.716 242.143 254.553 241.46 255.257C240.788 255.961 239.956 256.313 238.964 256.313C238.292 256.313 237.721 256.126 237.252 255.753C237.049 255.625 236.873 255.449 236.724 255.225C236.404 254.841 236.201 254.366 236.116 253.801C236.116 253.769 236.111 253.721 236.1 253.657C236.1 253.582 236.1 253.529 236.1 253.497C236.1 253.198 236.185 252.964 236.356 252.793C236.527 252.622 236.745 252.537 237.012 252.537Z" fill="#34495E"/>
<path d="M264.384 255.961C264.235 255.929 263.547 255.913 262.32 255.913C261.04 255.913 260.326 255.929 260.176 255.961H260.032V255.225H260.528C260.987 255.214 261.27 255.188 261.376 255.145C261.462 255.124 261.526 255.07 261.568 254.985C261.579 254.964 261.584 254.676 261.584 254.121V253.321H257.44V252.585L259.856 248.889C261.488 246.414 262.315 245.172 262.336 245.161C262.358 245.14 262.47 245.129 262.672 245.129H262.96L263.056 245.225V252.585H264.528V253.321H263.056V254.137C263.056 254.574 263.056 254.83 263.056 254.905C263.067 254.98 263.099 255.044 263.152 255.097C263.238 255.172 263.542 255.214 264.064 255.225H264.528V255.961H264.384ZM261.68 252.585V247.241L258.176 252.569L259.92 252.585H261.68ZM266.528 246.601C267.126 245.737 267.942 245.305 268.976 245.305C269.755 245.305 270.438 245.572 271.024 246.105C271.312 246.382 271.558 246.745 271.76 247.193C272.155 248.078 272.352 249.294 272.352 250.841C272.352 252.494 272.123 253.758 271.664 254.633C271.366 255.252 270.928 255.7 270.352 255.977C269.904 256.201 269.451 256.313 268.992 256.313C267.766 256.313 266.87 255.753 266.304 254.633C265.846 253.758 265.616 252.494 265.616 250.841C265.616 249.849 265.68 249.033 265.808 248.393C265.947 247.742 266.187 247.145 266.528 246.601ZM270.128 246.409C269.819 246.068 269.44 245.897 268.992 245.897C268.544 245.897 268.16 246.068 267.84 246.409C267.606 246.654 267.446 246.953 267.36 247.305C267.275 247.657 267.222 248.265 267.2 249.129C267.2 249.193 267.195 249.401 267.184 249.753C267.184 250.105 267.184 250.398 267.184 250.633C267.184 251.657 267.195 252.372 267.216 252.777C267.259 253.524 267.323 254.062 267.408 254.393C267.494 254.713 267.654 254.99 267.888 255.225C268.176 255.545 268.544 255.705 268.992 255.705C269.43 255.705 269.792 255.545 270.08 255.225C270.315 254.99 270.475 254.713 270.56 254.393C270.646 254.062 270.71 253.524 270.752 252.777C270.774 252.372 270.784 251.657 270.784 250.633C270.784 250.398 270.779 250.105 270.768 249.753C270.768 249.401 270.768 249.193 270.768 249.129C270.747 248.265 270.694 247.657 270.608 247.305C270.523 246.953 270.363 246.654 270.128 246.409Z" fill="#34495E"/>
<path d="M40.2999 196.555H283.474" stroke="#E5E6E8" stroke-width="2" stroke-linecap="round"/>
<path d="M40.2999 204.26H283.474" stroke="#E5E6E8" stroke-width="2" stroke-linecap="round"/>
<path d="M40.2999 211.964H283.474" stroke="#E5E6E8" stroke-width="2" stroke-linecap="round"/>
<path d="M40.2999 219.669H283.474" stroke="#E5E6E8" stroke-width="2" stroke-linecap="round"/>
<path d="M40.2999 227.374H283.474" stroke="#E5E6E8" stroke-width="2" stroke-linecap="round"/>
<path d="M40.2999 158.03H283.474" stroke="#E5E6E8" stroke-width="2" stroke-linecap="round"/>
<path d="M40.2999 119.505H283.474" stroke="#E5E6E8" stroke-width="2" stroke-linecap="round"/>
<path d="M40.2999 80.9795H283.474" stroke="#E5E6E8" stroke-width="2" stroke-linecap="round"/>
<path d="M40.2999 42.4543H283.474" stroke="#E5E6E8" stroke-width="2" stroke-linecap="round"/>
<path d="M281.38 225.141C280.751 225.141 280.239 224.842 279.844 224.245C279.428 224.842 278.943 225.141 278.388 225.141C277.993 225.141 277.657 225.029 277.38 224.805C277.113 224.57 276.98 224.266 276.98 223.893C276.98 223.583 277.065 223.327 277.236 223.125C277.417 222.911 277.657 222.805 277.956 222.805C278.137 222.805 278.287 222.863 278.404 222.981C278.521 223.087 278.58 223.237 278.58 223.429C278.58 223.503 278.575 223.562 278.564 223.605C278.479 223.903 278.308 224.117 278.052 224.245L277.892 224.309C277.988 224.469 278.18 224.549 278.468 224.549C278.895 224.549 279.231 224.191 279.476 223.477C279.508 223.381 279.668 222.757 279.956 221.605C280.244 220.453 280.399 219.813 280.42 219.685C280.441 219.589 280.452 219.45 280.452 219.269C280.452 218.746 280.228 218.485 279.78 218.485C279.364 218.485 278.975 218.703 278.612 219.141C278.335 219.461 278.127 219.861 277.988 220.341C277.967 220.437 277.945 220.49 277.924 220.501C277.903 220.511 277.801 220.517 277.62 220.517H277.348C277.263 220.431 277.247 220.314 277.3 220.165C277.396 219.823 277.556 219.487 277.78 219.157C278.004 218.826 278.244 218.57 278.5 218.389C278.937 218.058 279.375 217.893 279.812 217.893C280.559 217.893 281.081 218.191 281.38 218.789C281.455 218.682 281.551 218.565 281.668 218.437C282.052 218.074 282.457 217.893 282.884 217.893C283.268 217.893 283.593 218.01 283.86 218.245C284.127 218.469 284.26 218.767 284.26 219.141C284.26 219.45 284.169 219.711 283.988 219.925C283.817 220.127 283.588 220.229 283.3 220.229C283.129 220.229 282.98 220.181 282.852 220.085C282.735 219.978 282.676 219.839 282.676 219.669C282.676 219.221 282.868 218.922 283.252 218.773L283.348 218.725L283.22 218.613C283.113 218.538 282.969 218.501 282.788 218.501C282.671 218.501 282.575 218.517 282.5 218.549C282.212 218.698 281.972 219.018 281.78 219.509C281.748 219.605 281.588 220.218 281.3 221.349C281.012 222.469 280.852 223.114 280.82 223.285C280.788 223.445 280.772 223.605 280.772 223.765C280.772 224.287 281.007 224.549 281.476 224.549C281.583 224.549 281.679 224.538 281.764 224.517C282.308 224.357 282.74 223.93 283.06 223.237C283.199 222.885 283.268 222.682 283.268 222.629C283.268 222.618 283.3 222.581 283.364 222.517H283.636C283.849 222.517 283.961 222.533 283.972 222.565C283.983 222.575 283.988 222.607 283.988 222.661C283.988 222.746 283.94 222.911 283.844 223.157C283.748 223.391 283.652 223.589 283.556 223.749C283.225 224.271 282.831 224.65 282.372 224.885C282.041 225.055 281.711 225.141 281.38 225.141Z" fill="#34495E"/>
<path d="M54.5193 14.8521C54.2633 14.6494 54.0019 14.5321 53.7353 14.5001C53.5113 14.5001 53.3139 14.5321 53.1433 14.5961C52.4286 14.8308 51.8899 15.3908 51.5273 16.2761C51.2713 16.8948 51.0633 17.6841 50.9033 18.6441C50.8926 18.7294 50.8873 18.8734 50.8873 19.0761C50.8873 19.8548 51.1593 20.3348 51.7033 20.5161C51.7779 20.5374 51.9113 20.5481 52.1033 20.5481C52.4873 20.5481 52.8446 20.4788 53.1753 20.3401C53.7619 20.1268 54.2739 19.7588 54.7113 19.2361C54.8179 19.1081 54.8926 19.0441 54.9353 19.0441C54.9779 19.0441 55.0526 19.0974 55.1593 19.2041C55.2659 19.3108 55.3299 19.3854 55.3513 19.4281C55.3833 19.4814 55.3246 19.5881 55.1753 19.7481C54.5993 20.4201 53.8419 20.8574 52.9033 21.0601C52.6366 21.1134 52.3379 21.1401 52.0073 21.1401C51.7513 21.1401 51.5753 21.1294 51.4793 21.1081C50.8819 20.9908 50.4073 20.7028 50.0553 20.2441C49.7139 19.7854 49.5433 19.2041 49.5433 18.5001C49.5433 18.2121 49.5699 17.9401 49.6233 17.6841C49.7833 16.8841 50.1246 16.1641 50.6473 15.5241C51.1806 14.8734 51.8099 14.4148 52.5353 14.1481C52.8979 13.9988 53.2073 13.9241 53.4633 13.9241H53.6233C54.5939 13.9241 55.1753 14.2708 55.3673 14.9641C55.3886 15.0174 55.3993 15.1241 55.3993 15.2841C55.3993 15.5934 55.3086 15.8494 55.1273 16.0521C54.9566 16.2548 54.7326 16.3561 54.4553 16.3561C54.2739 16.3561 54.1193 16.3081 53.9913 16.2121C53.8739 16.1054 53.8153 15.9614 53.8153 15.7801C53.8153 15.3854 53.9966 15.1028 54.3593 14.9321L54.5193 14.8521ZM60.8706 11.2521C60.8706 10.9321 61.0733 10.6494 61.4786 10.4041C61.276 10.3294 61.148 10.2921 61.0946 10.2921C60.924 10.2921 60.7693 10.4148 60.6306 10.6601C60.588 10.7561 60.492 11.1508 60.3426 11.8441L59.9106 14.0681C59.9106 14.0788 60.188 14.0841 60.7426 14.0841H61.5586C61.6226 14.1374 61.66 14.1854 61.6706 14.2281C61.6813 14.2601 61.6653 14.3561 61.6226 14.5161C61.58 14.6654 61.532 14.7614 61.4786 14.8041L60.6146 14.8201H59.7666L59.3346 17.0441C58.9506 19.0281 58.684 20.3188 58.5346 20.9161C58.2786 21.9614 57.98 22.7454 57.6386 23.2681C57.308 23.7694 56.9346 24.0841 56.5186 24.2121C56.4653 24.2334 56.3533 24.2441 56.1826 24.2441C55.8093 24.2441 55.5 24.1428 55.2546 23.9401C55.0093 23.7374 54.8866 23.4654 54.8866 23.1241C54.8866 22.8361 54.972 22.5908 55.1426 22.3881C55.3133 22.1854 55.548 22.0841 55.8466 22.0841C56.028 22.0841 56.1773 22.1374 56.2946 22.2441C56.412 22.3614 56.4706 22.5161 56.4706 22.7081C56.4706 22.7828 56.4653 22.8414 56.4546 22.8841C56.3693 23.1614 56.1773 23.3854 55.8786 23.5561C55.8786 23.5774 55.9266 23.5988 56.0226 23.6201C56.1186 23.6521 56.1933 23.6681 56.2466 23.6681C56.396 23.6681 56.5506 23.5454 56.7106 23.3001C56.7853 23.1294 56.8493 22.9374 56.9026 22.7241C56.956 22.5214 57.02 22.2228 57.0946 21.8281C57.1693 21.4334 57.2226 21.1561 57.2546 20.9961C57.468 20.0254 57.58 19.4974 57.5906 19.4121C57.6226 19.2948 57.7133 18.8574 57.8626 18.1001C58.012 17.3428 58.1506 16.6121 58.2786 15.9081C58.4173 15.2041 58.4866 14.8468 58.4866 14.8361C58.4866 14.8254 58.252 14.8201 57.7826 14.8201H57.0786C57.0146 14.7668 56.9773 14.7241 56.9666 14.6921C56.956 14.6494 56.972 14.5481 57.0146 14.3881C57.0466 14.2601 57.1 14.1588 57.1746 14.0841H57.8946C58.3853 14.0841 58.6306 14.0734 58.6306 14.0521L58.6466 13.9721C58.668 13.9081 58.6893 13.8174 58.7106 13.7001C58.732 13.5828 58.7533 13.4761 58.7746 13.3801C59.02 12.0574 59.2653 11.1828 59.5106 10.7561C59.82 10.2014 60.268 9.8601 60.8546 9.7321C60.9613 9.71077 61.052 9.7001 61.1266 9.7001C61.5 9.7001 61.8146 9.80144 62.0706 10.0041C62.3266 10.2068 62.4546 10.4788 62.4546 10.8201C62.4546 11.1294 62.364 11.3854 62.1826 11.5881C62.012 11.7801 61.7826 11.8761 61.4946 11.8761C61.3133 11.8761 61.164 11.8228 61.0466 11.7161C60.9293 11.5988 60.8706 11.4441 60.8706 11.2521Z" fill="#34495E"/>
<rect x="55.2999" y="216.417" width="30" height="18.6625" fill="#9EDAE2" stroke="#186C75" stroke-width="2" stroke-linecap="round" stroke-linejoin="round"/>
<rect x="85.2999" y="189.284" width="30" height="45.7957" fill="#9EDAE2" stroke="#186C75" stroke-width="2" stroke-linecap="round" stroke-linejoin="round"/>
<rect x="115.3" y="154.56" width="30" height="80.52" fill="#9EDAE2" stroke="#186C75" stroke-width="2" stroke-linecap="round" stroke-linejoin="round"/>
<rect x="145.3" y="119.858" width="30" height="115.222" fill="#9EDAE2" stroke="#186C75" stroke-width="2" stroke-linecap="round" stroke-linejoin="round"/>
<rect x="175.3" y="77.2255" width="30" height="157.854" fill="#9EDAE2" stroke="#186C75" stroke-width="2" stroke-linecap="round" stroke-linejoin="round"/>
<rect x="205.3" y="57.8492" width="30" height="177.231" fill="#9EDAE2" stroke="#186C75" stroke-width="2" stroke-linecap="round" stroke-linejoin="round"/>
<path d="M55.2999 239.273L55.2999 235.273L55.2999 239.273Z" fill="#34495E"/>
<path d="M55.2999 239.273L55.2999 235.273" stroke="#34495E" stroke-width="2" stroke-linecap="round"/>
<path d="M85.2999 239.273L85.2999 235.273L85.2999 239.273Z" fill="#34495E"/>
<path d="M85.2999 239.273L85.2999 235.273" stroke="#34495E" stroke-width="2" stroke-linecap="round"/>
<path d="M115.3 239.273L115.3 235.273L115.3 239.273Z" fill="#34495E"/>
<path d="M115.3 239.273L115.3 235.273" stroke="#34495E" stroke-width="2" stroke-linecap="round"/>
<path d="M145.3 239.273L145.3 235.273L145.3 239.273Z" fill="#34495E"/>
<path d="M145.3 239.273L145.3 235.273" stroke="#34495E" stroke-width="2" stroke-linecap="round"/>
<path d="M175.301 239.273L175.301 235.273L175.301 239.273Z" fill="#34495E"/>
<path d="M175.301 239.273L175.301 235.273" stroke="#34495E" stroke-width="2" stroke-linecap="round"/>
<path d="M205.3 239.273L205.3 235.273L205.3 239.273Z" fill="#34495E"/>
<path d="M205.3 239.273L205.3 235.273" stroke="#34495E" stroke-width="2" stroke-linecap="round"/>
<path d="M235.3 239.273L235.3 235.273L235.3 239.273Z" fill="#34495E"/>
<path d="M235.3 239.273L235.3 235.273" stroke="#34495E" stroke-width="2" stroke-linecap="round"/>
<path d="M264.992 239.273L264.992 235.273L264.992 239.273Z" fill="#34495E"/>
<path d="M264.992 239.273L264.992 235.273" stroke="#34495E" stroke-width="2" stroke-linecap="round"/>
<path d="M36.2999 196.555H40.2999H36.2999Z" fill="#34495E"/>
<path d="M36.2999 196.555H40.2999" stroke="#34495E" stroke-width="2" stroke-linecap="round"/>
<path d="M36.2999 235.08H40.2999H36.2999Z" fill="#34495E"/>
<path d="M36.2999 235.08H40.2999" stroke="#34495E" stroke-width="2" stroke-linecap="round"/>
<path d="M36.2999 158.029H40.2999H36.2999Z" fill="#34495E"/>
<path d="M36.2999 158.029H40.2999" stroke="#34495E" stroke-width="2" stroke-linecap="round"/>
<path d="M36.2999 119.504H40.2999H36.2999Z" fill="#34495E"/>
<path d="M36.2999 119.504H40.2999" stroke="#34495E" stroke-width="2" stroke-linecap="round"/>
<path d="M36.2999 80.9784H40.2999H36.2999Z" fill="#34495E"/>
<path d="M36.2999 80.9784H40.2999" stroke="#34495E" stroke-width="2" stroke-linecap="round"/>
<path d="M36.2999 42.453H40.2999H36.2999Z" fill="#34495E"/>
<path d="M36.2999 42.453H40.2999" stroke="#34495E" stroke-width="2" stroke-linecap="round"/>
<rect x="235.3" y="42.5702" width="30" height="192.51" fill="#9EDAE2" stroke="#186C75" stroke-width="2" stroke-linecap="round" stroke-linejoin="round"/>
<path d="M55.7476 234.473L85.6346 216.253L115.273 189.461L175.144 119.822L204.879 77.0667L235.508 57.3673L265.167 43.0579" stroke="#0875BE" stroke-width="3" stroke-linecap="round"/>
<path d="M40.2999 3.03888L34.5264 13.0389H46.0734L40.2999 3.03888ZM40.2999 235.08H39.2999C39.2999 235.632 39.7476 236.08 40.2999 236.08V235.08ZM283.474 235.08L273.474 229.306V240.853L283.474 235.08ZM39.2999 12.0389V235.08H41.2999V12.0389H39.2999ZM40.2999 236.08H274.474V234.08H40.2999V236.08Z" fill="#34495E"/>
</g>
<defs>
<clipPath id="clip0">
<rect width="300" height="260" fill="white"/>
</clipPath>
</defs>
</svg>
